<?xml version="1.0" encoding="utf-8"?>
<!-- Generator: Adobe Illustrator 15.1.0, SVG Export Plug-In . SVG Version: 6.00 Build 0)  -->
<!DOCTYPE svg PUBLIC "-//W3C//DTD SVG 1.1//EN" "http://www.w3.org/Graphics/SVG/1.1/DTD/svg11.dtd">
<svg version="1.1" id="Layer_1" xmlns="http://www.w3.org/2000/svg" xmlns:xlink="http://www.w3.org/1999/xlink" x="0px" y="0px"
	 width="500px" height="500px" viewBox="0 0 500 500" enable-background="new 0 0 500 500" xml:space="preserve">
<g>
	<path fill="#F2C2C4" d="M340.907,469.993c0,16.57-13.392,30.001-29.909,30.001H29.909C13.393,499.994,0,486.563,0,469.993V30.004
		c0-16.567,13.393-30,29.909-30h281.089c16.518,0,29.909,13.433,29.909,30V469.993z"/>
	<path fill="#EB3A3C" d="M500,30.004v439.989C500,486.558,487.96,500,473.064,500H219.898c-14.875,0-26.933-13.442-26.933-30.007
		V30.004C192.966,13.439,205.023,0,219.898,0h253.166C487.96,0,500,13.439,500,30.004z"/>
	<path fill="none" d="M159.173,166.458c-11.936,1.507-21.177,11.73-21.177,24.112c0,12.357,9.241,22.563,21.177,24.068v0.184h33.793
		v-48.545h-33.793V166.458z"/>
	<g>
		<rect x="277.486" y="214.822" fill="#FFFFFF" width="70.021" height="189.133"/>
		<path fill="#FFFFFF" d="M472.616,131.213l-77.979-74.902l17.35,39.732H192.966h-30.751c-1.016,0-2.028,0.021-3.042,0.039
			c-50.645,1.605-91.196,43.279-91.196,94.488c0,51.186,40.552,92.858,91.196,94.462c0.609,0.021,1.218,0.021,1.825,0.021h31.968
			v-70.23h-33.793v-0.184c-11.936-1.505-21.177-11.711-21.177-24.068c0-12.382,9.241-22.605,21.177-24.112v-0.181h33.793h219.067
			l-17.396,39.836L472.616,131.213z"/>
		<rect x="152.85" y="333.721" fill="#FFFFFF" width="40.116" height="70.234"/>
		<g>
			<rect x="72.623" y="333.721" fill="#FFFFFF" width="20.056" height="70.234"/>
			<rect x="112.736" y="333.721" fill="#FFFFFF" width="20.057" height="70.234"/>
		</g>
	</g>
</g>
</svg>
