<?xml version="1.0" encoding="utf-8"?>
<!-- Generator: Adobe Illustrator 15.1.0, SVG Export Plug-In . SVG Version: 6.00 Build 0)  -->
<!DOCTYPE svg PUBLIC "-//W3C//DTD SVG 1.1//EN" "http://www.w3.org/Graphics/SVG/1.1/DTD/svg11.dtd">
<svg version="1.1" id="Layer_1" xmlns="http://www.w3.org/2000/svg" xmlns:xlink="http://www.w3.org/1999/xlink" x="0px" y="0px"
	 width="800px" height="619.398px" viewBox="0 0 800 619.398" enable-background="new 0 0 800 619.398" xml:space="preserve">
<g>
	<path fill="#F2C2C4" d="M481.985,423.861c0,14.943-12.078,27.057-26.974,27.057h-253.5c-14.893,0-26.974-12.113-26.974-27.057
		V27.055C174.538,12.113,186.619,0,201.512,0h253.5c14.896,0,26.974,12.113,26.974,27.055V423.861z"/>
	<path fill="#EB3A3C" d="M625.463,27.055v396.807c0,14.938-10.858,27.063-24.293,27.063H372.853
		c-13.413,0-24.288-12.125-24.288-27.063V27.055c0-14.936,10.875-27.059,24.288-27.059H601.17
		C614.604-0.004,625.463,12.119,625.463,27.055z"/>
	<path fill="none" d="M318.09,150.117c-10.763,1.357-19.103,10.578-19.103,21.746c0,11.141,8.34,20.348,19.103,21.707v0.166h30.475
		v-43.781H318.09V150.117z"/>
	<rect x="424.789" y="193.736" fill="#FFFFFF" width="63.146" height="170.568"/>
	<path fill="#FFFFFF" d="M600.77,118.332l-70.325-67.553l15.646,35.832H348.564h-27.732c-0.917,0-1.831,0.023-2.742,0.037
		c-45.679,1.451-82.247,39.031-82.247,85.215c0,46.16,36.568,83.744,82.247,85.189c0.547,0.02,1.098,0.02,1.642,0.02h28.833v-63.336
		H318.09v-0.166c-10.763-1.359-19.103-10.566-19.103-21.707c0-11.168,8.34-20.389,19.103-21.746v-0.162h30.475h197.567
		l-15.688,35.928L600.77,118.332z"/>
	<rect x="312.387" y="300.961" fill="#FFFFFF" width="36.178" height="63.344"/>
	<g>
		<rect x="240.03" y="300.961" fill="#FFFFFF" width="18.09" height="63.344"/>
		<rect x="276.207" y="300.961" fill="#FFFFFF" width="18.09" height="63.344"/>
	</g>
</g>
<g>
	<g>
		<g>
			<g>
				<g>
					<path d="M48.928,553.104c-3.466-2.15-9.81-4.057-19.029-5.721c-5.72-1.039-9.653-2.078-11.803-3.119
						c-3.606-1.732-5.407-4.332-5.407-7.799c0-3.57,0.761-6.152,2.287-7.748c2.494-2.6,6.101-3.898,10.813-3.898h26.05v-11.803
						h-26.05c-8.839,0-15.493,2.322-19.964,6.967C1.94,524.037,0,529.533,0,536.465c0,8.109,2.879,13.83,8.631,17.158
						c3.087,1.803,9.429,3.57,19.031,5.303c5.337,0.971,9.291,2.168,11.855,3.588c3.57,1.979,5.354,4.715,5.354,8.217
						c0,4.09-0.78,6.898-2.34,8.42c-2.253,2.152-6.43,3.227-12.528,3.227H1.611v11.803h28.393c9.495,0,16.604-2.271,21.316-6.813
						c4.16-4.02,6.24-9.566,6.24-16.637C57.561,562.584,54.682,556.707,48.928,553.104z"/>
				</g>
				<g>
					<path d="M135.656,577.125c-2.184,3.363-4.697,5.494-7.538,6.395c-2.601,0.799-5.166,0.52-7.696-0.83
						c-2.425-1.354-4.384-3.467-5.874-6.344c-1.596-3.051-2.358-6.43-2.289-10.139v-27.975H99.572v27.975
						c0,4.299,0.746,8.318,2.236,12.063c-2.533,2.877-5.148,4.73-7.854,5.561c-2.564,0.766-4.94,0.557-7.122-0.621
						c-4.819-2.6-7.229-8.217-7.229-16.848v-28.129H66.918v28.129c0,6.484,1.389,12.186,4.16,17.107
						c2.567,4.609,5.962,7.955,10.191,10.035s8.561,2.564,12.999,1.455c4.714-1.18,8.872-4.055,12.479-8.633
						c5.545,6.379,12.321,9.395,20.33,9.049c8.489-0.383,15.219-4.66,20.173-12.842c0.729-1.074,1.091-2.273,1.091-3.588v-40.713
						h-12.686V577.125z"/>
				</g>
				<g>
					<rect x="159.781" y="513.016" width="12.739" height="12.738"/>
				</g>
				<g>
					<rect x="159.781" y="538.232" width="12.688" height="55.947"/>
				</g>
				<g>
					<g>
						<path d="M211.882,537.088c-5.548,0-10.644,1.734-15.288,5.199v-4.055h-12.687v81.166h12.687V590.07
							c4.645,3.504,9.774,5.254,15.392,5.254c7.106,0,13.189-2.6,18.25-7.799c5.441-5.547,8.163-12.654,8.163-21.318
							c0-8.701-2.722-15.824-8.163-21.373C225.142,539.635,219.022,537.055,211.882,537.088z M220.252,578.633
							c-3.396,3.156-7.349,4.715-11.855,4.68c-4.749-0.033-8.683-1.891-11.803-5.563v-23.086c3.154-3.711,7.108-5.564,11.857-5.564
							c4.505-0.035,8.455,1.525,11.854,4.678c3.57,3.33,5.356,7.473,5.356,12.43C225.661,571.162,223.856,575.305,220.252,578.633z"
							/>
					</g>
				</g>
				<g>
					<g>
						<path d="M287.432,539.895c-3.989-1.904-8.184-2.857-12.584-2.857c-8.041,0-14.923,2.842-20.643,8.527
							c-5.686,5.684-8.527,12.564-8.527,20.643c0,8.041,2.842,14.922,8.527,20.641c5.72,5.686,12.602,8.527,20.643,8.527
							c4.54,0,8.857-1.006,12.948-3.016c4.09-2.045,7.521-4.889,10.294-8.529l-9.203-6.965c-2.53,3.465-5.703,5.684-9.514,6.654
							c-3.988,1.041-7.851,0.451-11.596-1.768l28.18-25.115c1.422-1.143,2.305-2.529,2.652-4.158
							c0.381-1.697,0.051-3.205-0.988-4.523C294.848,544.523,291.452,541.838,287.432,539.895z M260.028,574.213
							c-2.46-2.844-3.31-6.412-2.546-10.711c0.692-3.848,2.321-7.055,4.886-9.619c2.739-2.738,6.294-4.453,10.659-5.148
							c4.994-0.797,8.875,0.348,11.648,3.432L260.028,574.213z"/>
					</g>
				</g>
			</g>
		</g>
		<g>
			<g>
				<g>
					<polygon points="302.301,525.701 324.035,525.701 324.035,594.18 336.721,594.18 336.721,525.701 358.457,525.701 
						358.457,513.016 302.301,513.016 					"/>
				</g>
				<g>
					<path d="M377.382,544.473v-6.24h-12.688v55.947h12.688v-38.686c1.316-1.627,2.859-2.928,4.627-3.9
						c2.253-1.246,4.68-1.871,7.279-1.871c4.264,0,7.903,1.561,10.918,4.68l8.997-10.764c-4.369-4.365-9.463-6.566-15.286-6.602
						C387.851,537.037,382.338,539.516,377.382,544.473z"/>
				</g>
				<g>
					<g>
						<path d="M451.371,542.34c-4.646-3.502-9.758-5.252-15.339-5.252c-7.104,0-13.208,2.6-18.302,7.799
							c-5.407,5.547-8.111,12.654-8.111,21.32c0,8.699,2.721,15.822,8.163,21.369c5.097,5.164,11.196,7.748,18.302,7.748
							c5.583,0,10.678-1.75,15.287-5.254v4.109h12.74v-55.947h-12.74V542.34z M451.371,577.75
							c-3.119,3.709-7.055,5.563-11.803,5.563c-4.506,0.035-8.457-1.523-11.855-4.68c-3.604-3.328-5.405-7.471-5.405-12.426
							c0-4.994,1.802-9.152,5.405-12.48c3.435-3.119,7.4-4.662,11.908-4.627c4.746,0.035,8.663,1.891,11.75,5.564V577.75z"/>
					</g>
				</g>
				<g>
					<path d="M513.402,539.48c-4.16-2.184-8.528-2.895-13.103-2.133c-4.785,0.799-9.15,3.172-13.104,7.125v-6.24H474.51v55.947
						h12.686v-38.686c1.318-1.627,2.859-2.928,4.629-3.9c2.254-1.246,4.68-1.871,7.279-1.871c4.265,0,7.92,1.58,10.97,4.732
						c3.085,3.223,4.629,7.141,4.629,11.752v27.973h12.739v-27.973c0-6.311-1.336-11.873-4.005-16.693
						C520.941,545.01,517.596,541.664,513.402,539.48z"/>
				</g>
				<g>
					<path d="M576.888,564.387c-2.532-1.18-7.954-2.357-16.277-3.535c-2.216-0.348-3.794-0.59-4.729-0.73
						c-3.361-0.588-5.651-1.455-6.865-2.598c-0.728-0.693-1.091-1.646-1.091-2.859c-0.034-1.25,0.554-2.307,1.77-3.172
						c1.486-1.076,3.64-1.561,6.444-1.457h24.49v-11.803h-24.49c-5.787,0-10.554,1.385-14.297,4.16
						c-4.401,3.293-6.602,7.625-6.602,13c0,6.064,2.457,10.277,7.382,12.633c2.529,1.215,7.954,2.41,16.273,3.586
						c1.733,0.244,3.033,0.436,3.899,0.574c5.859,0.936,8.788,2.721,8.788,5.355c0,3.225-3.119,4.836-9.359,4.836h-25.947v11.803
						h25.947c6.101,0,11.11-1.334,15.025-4.004c4.68-3.225,7.022-7.607,7.022-13.156
						C584.272,570.955,581.809,566.742,576.888,564.387z"/>
				</g>
				<g>
					<rect x="593.112" y="513.016" width="12.737" height="12.738"/>
				</g>
				<g>
					<rect x="593.112" y="538.232" width="12.685" height="55.947"/>
				</g>
				<g>
					<path d="M634.601,513.016h-12.739v25.217h-7.745v11.281h7.745v17.523l0.055,1.195c-0.035,9.117,0.865,15.236,2.703,18.355
						c2.911,5.061,9.271,7.592,19.081,7.592h6.344V582.74H643.7c-4.124,0-6.794-1.281-8.005-3.848
						c-0.765-1.594-1.146-4.732-1.146-9.412l0.051-1.143v-18.824h15.443v-11.281h-15.443V513.016z"/>
				</g>
				<g>
					<rect x="658.363" y="513.016" width="12.739" height="12.738"/>
				</g>
				<g>
					<rect x="658.363" y="538.232" width="12.687" height="55.947"/>
				</g>
				<g>
					<g>
						<path d="M709.58,537.037c-8.041,0-14.923,2.842-20.643,8.527c-5.686,5.684-8.527,12.564-8.527,20.643
							c0,8.041,2.842,14.922,8.527,20.641c5.72,5.686,12.602,8.527,20.643,8.527c8.074,0,14.955-2.842,20.643-8.527
							c5.686-5.719,8.526-12.6,8.526-20.641c0-8.078-2.841-14.959-8.526-20.643C724.535,539.879,717.654,537.037,709.58,537.037z
							 M720.914,579.725c-3.084,3.016-6.863,4.523-11.334,4.523c-4.438,0-8.215-1.49-11.334-4.473
							c-3.435-3.359-5.148-7.885-5.148-13.568c0-5.686,1.714-10.193,5.148-13.52c3.119-3.016,6.896-4.541,11.334-4.574
							c4.471,0,8.25,1.504,11.334,4.521c3.431,3.328,5.148,7.852,5.148,13.572C726.063,571.891,724.345,576.396,720.914,579.725z"/>
					</g>
				</g>
				<g>
					<path d="M795.995,549.514c-2.495-4.504-5.841-7.85-10.034-10.033c-4.16-2.184-8.528-2.895-13.104-2.133
						c-4.783,0.799-9.15,3.172-13.1,7.125v-6.24h-12.688v55.947h12.688v-38.686c1.315-1.627,2.856-2.928,4.626-3.9
						c2.253-1.246,4.68-1.871,7.279-1.871c4.264,0,7.92,1.58,10.97,4.732c3.085,3.223,4.629,7.141,4.629,11.752v27.973H800v-27.973
						C800,559.896,798.664,554.334,795.995,549.514z"/>
				</g>
			</g>
		</g>
	</g>
</g>
</svg>
