<?xml version="1.0" encoding="utf-8"?>
<!-- Generator: Adobe Illustrator 15.1.0, SVG Export Plug-In . SVG Version: 6.00 Build 0)  -->
<!DOCTYPE svg PUBLIC "-//W3C//DTD SVG 1.1//EN" "http://www.w3.org/Graphics/SVG/1.1/DTD/svg11.dtd">
<svg version="1.1" id="Layer_1" xmlns="http://www.w3.org/2000/svg" xmlns:xlink="http://www.w3.org/1999/xlink" x="0px" y="0px"
	 width="800px" height="137.184px" viewBox="0 0 800 137.184" enable-background="new 0 0 800 137.184" xml:space="preserve">
<g>
	<path fill="#F2C2C4" d="M93.535,128.951c0,4.547-3.676,8.23-8.207,8.23H8.205c-4.529,0-8.205-3.684-8.205-8.23V8.232
		C0,3.686,3.676,0,8.205,0h77.123c4.531,0,8.207,3.686,8.207,8.232V128.951z"/>
	<path fill="#EB3A3C" d="M137.184,8.232v120.719c0,4.545-3.303,8.232-7.391,8.232H60.332c-4.08,0-7.389-3.688-7.389-8.232V8.232
		C52.943,3.688,56.252,0,60.332,0h69.461C133.881,0,137.184,3.688,137.184,8.232z"/>
	<path fill="none" d="M43.672,45.67c-3.273,0.412-5.811,3.219-5.811,6.615c0,3.391,2.537,6.191,5.811,6.605v0.051h9.271v-13.32
		h-9.271V45.67z"/>
	<rect x="76.133" y="58.941" fill="#FFFFFF" width="19.211" height="51.891"/>
	<path fill="#FFFFFF" d="M129.672,36l-21.395-20.551l4.76,10.9H52.943h-8.438c-0.277,0-0.557,0.006-0.834,0.012
		C29.775,26.803,18.65,38.236,18.65,52.285c0,14.043,11.125,25.479,25.021,25.918c0.166,0.006,0.334,0.006,0.5,0.006h8.771V58.941
		h-9.271v-0.051c-3.273-0.414-5.811-3.215-5.811-6.605c0-3.396,2.537-6.203,5.811-6.615v-0.049h9.271h60.105l-4.771,10.93
		L129.672,36z"/>
	<rect x="41.938" y="91.563" fill="#FFFFFF" width="11.006" height="19.27"/>
	<g>
		<rect x="19.924" y="91.563" fill="#FFFFFF" width="5.504" height="19.27"/>
		<rect x="30.93" y="91.563" fill="#FFFFFF" width="5.504" height="19.27"/>
	</g>
</g>
<g>
	<g>
		<g>
			<g>
				<g>
					<path d="M205.91,68.777c-2.742-1.699-7.76-3.207-15.053-4.523c-4.525-0.822-7.637-1.645-9.336-2.469
						c-2.854-1.369-4.277-3.426-4.277-6.168c0-2.824,0.604-4.865,1.809-6.127c1.975-2.059,4.826-3.086,8.555-3.086h20.605v-9.336
						h-20.605c-6.992,0-12.256,1.838-15.791,5.512c-3.072,3.209-4.607,7.555-4.607,13.037c0,6.416,2.275,10.939,6.826,13.572
						c2.441,1.426,7.459,2.824,15.053,4.195c4.223,0.768,7.35,1.713,9.379,2.838c2.822,1.563,4.236,3.729,4.236,6.498
						c0,3.236-0.617,5.457-1.852,6.662c-1.783,1.701-5.086,2.549-9.912,2.549h-22.457v9.338h22.457
						c7.512,0,13.133-1.797,16.863-5.389c3.289-3.18,4.936-7.566,4.936-13.16C212.738,76.277,210.461,71.629,205.91,68.777z"/>
				</g>
				<g>
					<path d="M274.512,87.779c-1.729,2.66-3.717,4.346-5.965,5.059c-2.055,0.631-4.086,0.412-6.086-0.658
						c-1.92-1.07-3.469-2.742-4.648-5.018c-1.26-2.412-1.865-5.086-1.809-8.02V57.016h-10.035v22.127c0,3.4,0.59,6.58,1.768,9.541
						c-2.002,2.275-4.07,3.742-6.209,4.4c-2.029,0.604-3.908,0.439-5.635-0.494c-3.813-2.055-5.717-6.496-5.717-13.324v-22.25
						h-10.035v22.25c0,5.129,1.096,9.637,3.289,13.531c2.029,3.646,4.717,6.291,8.063,7.938c3.344,1.646,6.771,2.029,10.281,1.152
						c3.729-0.934,7.018-3.209,9.871-6.828c4.387,5.045,9.746,7.43,16.082,7.156c6.715-0.303,12.035-3.688,15.957-10.158
						c0.574-0.85,0.861-1.797,0.861-2.838V57.016h-10.033V87.779z"/>
				</g>
				<g>
					<rect x="293.594" y="37.068" width="10.076" height="10.076"/>
				</g>
				<g>
					<rect x="293.594" y="57.016" width="10.035" height="44.254"/>
				</g>
				<g>
					<g>
						<path d="M334.805,56.111c-4.389,0-8.418,1.371-12.092,4.111v-3.207h-10.035v64.201h10.035V98.02
							c3.674,2.77,7.73,4.154,12.174,4.154c5.621,0,10.434-2.057,14.436-6.168c4.305-4.387,6.457-10.01,6.457-16.863
							c0-6.881-2.152-12.518-6.457-16.904C345.291,58.125,340.453,56.082,334.805,56.111z M341.426,88.973
							c-2.688,2.494-5.813,3.729-9.377,3.701c-3.756-0.027-6.869-1.494-9.336-4.402v-18.26c2.494-2.934,5.621-4.4,9.377-4.4
							c3.564-0.027,6.689,1.207,9.377,3.701c2.824,2.633,4.236,5.908,4.236,9.83C345.703,83.063,344.277,86.34,341.426,88.973z"/>
					</g>
				</g>
				<g>
					<g>
						<path d="M394.563,58.332c-3.152-1.508-6.471-2.262-9.951-2.262c-6.361,0-11.805,2.248-16.328,6.744
							c-4.498,4.496-6.746,9.939-6.746,16.328c0,6.361,2.248,11.803,6.746,16.328c4.523,4.496,9.967,6.744,16.328,6.744
							c3.59,0,7.006-0.795,10.24-2.385c3.234-1.617,5.949-3.867,8.143-6.746l-7.279-5.51c-2.002,2.74-4.512,4.496-7.525,5.264
							c-3.154,0.822-6.211,0.355-9.172-1.398l22.291-19.865c1.125-0.904,1.822-2.002,2.098-3.291
							c0.301-1.342,0.041-2.535-0.781-3.576C400.43,61.992,397.744,59.867,394.563,58.332z M372.889,85.477
							c-1.947-2.248-2.619-5.072-2.014-8.473c0.547-3.043,1.836-5.58,3.865-7.609c2.166-2.166,4.977-3.521,8.43-4.072
							c3.949-0.629,7.02,0.275,9.215,2.715L372.889,85.477z"/>
					</g>
				</g>
			</g>
		</g>
		<g>
			<g>
				<g>
					<polygon points="406.326,47.104 423.518,47.104 423.518,101.27 433.551,101.27 433.551,47.104 450.744,47.104 450.744,37.068 
						406.326,37.068 					"/>
				</g>
				<g>
					<path d="M465.715,61.951v-4.936h-10.037v44.254h10.037v-30.6c1.041-1.287,2.26-2.316,3.658-3.084
						c1.783-0.988,3.701-1.482,5.758-1.482c3.373,0,6.252,1.234,8.637,3.703l7.117-8.516c-3.455-3.453-7.484-5.193-12.092-5.221
						C473.994,56.07,469.635,58.029,465.715,61.951z"/>
				</g>
				<g>
					<g>
						<path d="M524.238,60.266c-3.676-2.771-7.717-4.154-12.131-4.154c-5.621,0-10.447,2.055-14.479,6.168
							c-4.277,4.387-6.416,10.01-6.416,16.863c0,6.881,2.152,12.516,6.457,16.902c4.031,4.086,8.857,6.129,14.477,6.129
							c4.416,0,8.445-1.385,12.092-4.154v3.25h10.076V57.016h-10.076V60.266z M524.238,88.271c-2.467,2.936-5.58,4.402-9.336,4.402
							c-3.564,0.027-6.689-1.207-9.377-3.701c-2.852-2.633-4.277-5.91-4.277-9.83c0-3.949,1.426-7.238,4.277-9.871
							c2.715-2.467,5.854-3.688,9.418-3.66c3.756,0.027,6.854,1.494,9.295,4.4V88.271z"/>
					</g>
				</g>
				<g>
					<path d="M573.305,58.002c-3.291-1.727-6.746-2.287-10.363-1.686c-3.785,0.631-7.24,2.508-10.365,5.635v-4.936h-10.035v44.254
						h10.035v-30.6c1.041-1.287,2.262-2.316,3.66-3.084c1.783-0.988,3.701-1.482,5.758-1.482c3.373,0,6.266,1.25,8.678,3.744
						c2.441,2.549,3.66,5.648,3.66,9.295v22.127h10.076V79.143c0-4.99-1.055-9.393-3.166-13.203
						C579.27,62.377,576.621,59.729,573.305,58.002z"/>
				</g>
				<g>
					<path d="M623.521,77.703c-2.002-0.934-6.293-1.865-12.875-2.797c-1.754-0.273-3.002-0.467-3.74-0.576
						c-2.66-0.467-4.471-1.15-5.43-2.057c-0.576-0.549-0.863-1.301-0.863-2.262c-0.029-0.986,0.438-1.824,1.398-2.508
						c1.178-0.85,2.879-1.234,5.1-1.152h19.371v-9.336h-19.371c-4.58,0-8.35,1.096-11.311,3.291
						c-3.482,2.605-5.223,6.031-5.223,10.281c0,4.799,1.945,8.129,5.84,9.994c2.002,0.961,6.291,1.906,12.873,2.836
						c1.369,0.193,2.398,0.344,3.084,0.455c4.633,0.738,6.951,2.15,6.951,4.234c0,2.551-2.469,3.824-7.404,3.824H591.4v9.338h20.521
						c4.826,0,8.789-1.057,11.887-3.168c3.701-2.551,5.553-6.018,5.553-10.404C629.361,82.898,627.414,79.568,623.521,77.703z"/>
				</g>
				<g>
					<rect x="636.354" y="37.068" width="10.076" height="10.076"/>
				</g>
				<g>
					<rect x="636.354" y="57.016" width="10.035" height="44.254"/>
				</g>
				<g>
					<path d="M669.172,37.068h-10.076v19.947h-6.127v8.924h6.127v13.859l0.043,0.947c-0.027,7.211,0.684,12.051,2.139,14.518
						c2.303,4.004,7.334,6.006,15.092,6.006h5.02v-9.049h-5.02c-3.262,0-5.373-1.014-6.332-3.043
						c-0.604-1.26-0.906-3.742-0.906-7.445l0.041-0.904V65.939h12.217v-8.924h-12.217V37.068z"/>
				</g>
				<g>
					<rect x="687.969" y="37.068" width="10.076" height="10.076"/>
				</g>
				<g>
					<rect x="687.969" y="57.016" width="10.033" height="44.254"/>
				</g>
				<g>
					<g>
						<path d="M728.48,56.07c-6.361,0-11.805,2.248-16.328,6.744c-4.498,4.496-6.746,9.939-6.746,16.328
							c0,6.361,2.248,11.803,6.746,16.328c4.523,4.496,9.967,6.744,16.328,6.744c6.387,0,11.83-2.248,16.326-6.744
							c4.498-4.525,6.746-9.967,6.746-16.328c0-6.389-2.248-11.832-6.746-16.328C740.311,58.318,734.867,56.07,728.48,56.07z
							 M737.445,89.836c-2.441,2.385-5.43,3.578-8.965,3.578c-3.512,0-6.5-1.178-8.967-3.537c-2.715-2.66-4.072-6.238-4.072-10.734
							s1.357-8.061,4.072-10.693c2.467-2.385,5.455-3.592,8.967-3.619c3.535,0,6.523,1.191,8.965,3.578
							c2.715,2.631,4.072,6.211,4.072,10.734C741.518,83.639,740.16,87.203,737.445,89.836z"/>
					</g>
				</g>
				<g>
					<path d="M796.834,65.939c-1.975-3.563-4.621-6.211-7.939-7.938c-3.289-1.727-6.744-2.287-10.363-1.686
						c-3.783,0.631-7.238,2.508-10.363,5.635v-4.936h-10.037v44.254h10.037v-30.6c1.041-1.287,2.262-2.316,3.658-3.084
						c1.783-0.988,3.703-1.482,5.76-1.482c3.371,0,6.266,1.25,8.678,3.744c2.439,2.549,3.66,5.648,3.66,9.295v22.127H800V79.143
						C800,74.152,798.943,69.75,796.834,65.939z"/>
				</g>
			</g>
		</g>
	</g>
</g>
</svg>
